<?xml version="1.0" encoding="UTF-8"?>
<svg version="1.1" xmlns="http://www.w3.org/2000/svg" width="2000" height="835">
<path d="M0 0 C1.33894177 -0.00551503 1.33894177 -0.00551503 2.70493287 -0.01114148 C5.70809476 -0.02219021 8.71122206 -0.02602416 11.71440125 -0.02983093 C13.8627178 -0.0360946 16.01103326 -0.04274132 18.15934753 -0.04974365 C24.00442389 -0.06716038 29.84949207 -0.07770692 35.69458795 -0.08594918 C39.34452154 -0.09109714 42.99445259 -0.09717291 46.64438438 -0.10346031 C58.05886766 -0.12251291 69.47334445 -0.1367448 80.88784057 -0.14507228 C94.07417444 -0.15485073 107.26034072 -0.18118595 120.44661552 -0.22157317 C130.6326742 -0.25170341 140.81868475 -0.26653816 151.00478715 -0.26985329 C157.09157789 -0.27220699 163.1781896 -0.28120926 169.26493263 -0.30631447 C174.98999005 -0.32954648 180.71474993 -0.33384795 186.43984222 -0.32355309 C188.54172186 -0.32305646 190.6436159 -0.32941414 192.74545097 -0.34310913 C195.61402528 -0.36075513 198.4815233 -0.3537577 201.35009766 -0.34057617 C202.18269193 -0.35154542 203.01528619 -0.36251466 203.87311059 -0.37381631 C209.14265201 -0.31531732 212.23818273 0.57091818 216.36552429 4.14717102 C219.28320129 7.80098192 218.65250846 12.4761797 218.63967896 16.93986511 C218.64491563 17.83743094 218.65015231 18.73499676 218.65554768 19.65976155 C218.67057466 22.67367593 218.67125342 25.68742094 218.67192078 28.70137024 C218.67954039 30.85968819 218.68796755 33.01800341 218.69714355 35.17631531 C218.71911374 41.04406798 218.72789075 46.91176854 218.73297 52.7795577 C218.73661031 56.44407491 218.74284864 60.10857838 218.74997139 63.77309036 C218.77447374 76.55322623 218.78751968 89.33332146 218.7910614 102.11347961 C218.79469823 114.03324893 218.82460235 125.952761 218.86646599 137.87245166 C218.90113296 148.10100054 218.91660921 158.32946401 218.91730744 168.55807126 C218.91810141 174.66947127 218.92689585 180.78060929 218.9553051 186.8919487 C218.98142424 192.63924219 218.98372511 198.3860553 218.96764946 204.13338089 C218.96583013 206.24332473 218.97256908 208.35329582 218.98846817 210.46318054 C219.00884602 213.34286236 218.99842555 216.22085031 218.98025513 219.10050964 C218.99345509 219.93631274 219.00665506 220.77211584 219.02025503 221.6332463 C218.96045729 225.77965487 218.60132999 228.36768533 215.95210361 231.65008736 C212.81334744 234.68024255 211.5310931 235.270599 207.33103943 235.28520203 C206.4871315 235.29065536 205.64322357 235.2961087 204.77374268 235.30172729 C203.84593491 235.30276962 202.91812714 235.30381195 201.96220398 235.30488586 C200.98643906 235.30996658 200.01067413 235.3150473 199.00534058 235.32028198 C196.88112543 235.33100103 194.75689889 235.33961516 192.63266754 235.34640121 C189.27030494 235.35816834 185.90807205 235.37761631 182.54576111 235.39952087 C172.98393573 235.46120547 163.42212257 235.51517069 153.8601532 235.54853821 C148.01574374 235.56948452 142.17156884 235.60479066 136.3272934 235.64929581 C134.09941113 235.66345948 131.87148735 235.67217907 129.64356232 235.67535019 C126.52426632 235.6802592 123.40559233 235.70341855 120.28642273 235.73066711 C119.36671188 235.72766098 118.44700104 235.72465485 117.49942017 235.72155762 C112.39428768 235.7877784 108.76137658 236.251475 104.36552429 239.14717102 C100.24254442 246.3623858 103.17880823 254.90528333 105.1282196 262.45747375 C113.45209746 292.82309041 130.76934769 318.37682063 158.24052429 334.39717102 C171.50591738 341.8260123 185.47741247 345.95856662 200.31083679 348.95185852 C201.54575867 349.20193665 202.78068054 349.45201477 204.05302429 349.70967102 C205.15001648 349.91721008 206.24700867 350.12474915 207.37724304 350.33857727 C211.50666638 351.45595065 214.29194774 352.79691727 216.97982788 356.17750549 C218.90010938 360.29283243 218.82077879 363.89351452 218.82963562 368.38447571 C218.84303986 369.30709198 218.85644409 370.22970825 218.87025452 371.18028259 C218.91059729 374.2265649 218.92958944 377.27255573 218.94755554 380.31904602 C218.96949339 382.44269332 218.99243189 384.56633049 219.0163269 386.68995667 C219.06319196 391.14181321 219.09983777 395.59360132 219.12895203 400.04560852 C219.16670644 405.73617271 219.2267139 411.42623018 219.29407215 417.1165123 C219.3440333 421.50378072 219.38359025 425.89109508 219.41991234 430.27849579 C219.43822501 432.37556371 219.45937896 434.47260889 219.48348427 436.56961823 C219.51542326 439.51053651 219.53369774 442.45123952 219.54838562 445.39228821 C219.56612785 446.67847549 219.56612785 446.67847549 219.58422852 447.99064636 C219.59464623 454.36115501 219.31828667 461.10086171 215.80302429 466.58467102 C209.16820359 470.83776121 201.07641904 470.38633732 193.49052429 469.95967102 C192.48167175 469.90633606 191.47281921 469.8530011 190.43339539 469.79804993 C164.49838507 468.24121379 139.76961376 461.39109694 116.36552429 450.14717102 C115.05889832 449.52068665 115.05889832 449.52068665 113.72587585 448.88154602 C96.24743969 440.37609962 80.01934071 429.94820605 65.36552429 417.14717102 C64.23437195 416.18037415 64.23437195 416.18037415 63.08036804 415.19404602 C49.91706124 403.6788995 37.69726743 391.2685812 27.36552429 377.14717102 C26.51948237 376.01933256 25.67312693 374.89172921 24.82646179 373.76435852 C-18.67162549 315.12373555 -18.77829125 248.24715297 -18.83466434 178.4263711 C-18.83762792 174.93542358 -18.84173749 171.44447911 -18.84616852 167.95353317 C-18.85975316 156.99671802 -18.86947265 146.03991006 -18.87337041 135.08308709 C-18.87787832 122.48964817 -18.89558928 109.89631632 -18.924371 97.30290997 C-18.94596589 87.51206115 -18.95607293 77.7212426 -18.95741153 67.93037021 C-18.95845786 62.10274453 -18.96433381 56.27522077 -18.98223114 50.44762039 C-18.99868144 44.98900058 -19.0008822 39.53055995 -18.99209213 34.07192421 C-18.99132109 32.07203885 -18.99567336 30.07214391 -19.00555038 28.07228279 C-19.01824887 25.34134512 -19.01240544 22.61104498 -19.00196838 19.88011169 C-19.01002479 19.09151107 -19.01808119 18.30291044 -19.02638173 17.49041283 C-18.98027642 12.3269415 -18.03138298 8.74246706 -15.63447571 4.14717102 C-10.96606122 -0.22946756 -6.08615755 -0.00133692 0 0 Z M77.36552429 97.14717102 C71.4596146 104.46050239 68.86819124 111.3876152 69.11161804 120.78388977 C70.11545412 130.12728708 73.92925632 137.81687927 81.26005554 143.75654602 C88.55254252 148.57310514 96.74581357 150.35246955 105.36552429 149.14717102 C115.38803053 146.61445661 122.60629058 142.45183499 128.07255554 133.60029602 C131.93226632 126.27734023 133.48769087 119.25216878 131.36552429 111.14717102 C127.93157742 101.71298245 122.80692387 94.68787624 113.92802429 89.80732727 C100.48709096 83.59531697 87.42463569 85.9654892 77.36552429 97.14717102 Z " fill="#00467E" transform="translate(49.63447570800781,124.85282897949219)"/>
<path d="M0 0 C0.89519112 -0.00538554 1.79038224 -0.01077108 2.71270037 -0.01631981 C5.7066788 -0.03060582 8.70021551 -0.02349405 11.69421387 -0.01637268 C13.84297542 -0.02207585 15.99173394 -0.02903991 18.14048767 -0.03717041 C23.9730375 -0.05512139 29.80543705 -0.0539299 35.63800621 -0.04822803 C40.50651081 -0.0451394 45.37498641 -0.05122491 50.24348688 -0.05726677 C61.72724981 -0.07131638 73.21093835 -0.06974667 84.69470215 -0.05836487 C96.54518602 -0.04687922 108.3954437 -0.06096598 120.24589777 -0.08776134 C130.41929294 -0.10990408 140.59261704 -0.11655904 150.7660346 -0.11068493 C156.84269979 -0.10731124 162.91921992 -0.10975808 168.99586487 -0.12693596 C174.70867922 -0.14238049 180.42115784 -0.13847701 186.13395882 -0.11963081 C188.23099261 -0.11593825 190.32805114 -0.11907275 192.42506218 -0.1295166 C195.28693766 -0.1426821 198.14769438 -0.13121825 201.00952148 -0.11352539 C202.25534335 -0.1279329 202.25534335 -0.1279329 203.52633333 -0.14263147 C208.78806189 -0.07566288 211.88279198 0.81919387 216.00476074 4.38768005 C217.72285865 7.20532725 218.25527804 9.30017222 218.25923634 12.58106232 C218.26506853 13.41474067 218.27090072 14.24841903 218.27690965 15.10736036 C218.27313033 16.01821913 218.269351 16.9290779 218.26545715 17.86753845 C218.2692827 18.83941998 218.27310825 19.81130151 218.27704972 20.81263399 C218.28739259 24.07924036 218.2833848 27.34567136 218.27941895 30.61228943 C218.28376534 32.95165673 218.28894825 35.2910226 218.29490662 37.63038635 C218.30833219 43.99961095 218.30887012 50.36877632 218.30634332 56.73801231 C218.30513814 62.74405311 218.31135461 68.75008562 218.31677677 74.75612313 C218.32766397 87.40706142 218.32548729 100.0579731 218.31939193 112.70891291 C218.31425087 124.21959353 218.32540118 135.73018878 218.34449015 147.24085253 C218.36399878 159.09721247 218.37210012 170.95353234 218.3683669 182.80990839 C218.36647066 189.4506577 218.36905658 196.09134532 218.38308144 202.73208618 C218.50859485 267.79220005 211.77600259 327.44765697 170.00476074 380.38768005 C169.33315918 381.25264099 168.66155762 382.11760193 167.96960449 383.0087738 C163.37548691 388.78791611 158.47041119 394.23537058 153.44226074 399.63768005 C152.82915039 400.29929138 152.21604004 400.96090271 151.58435059 401.64256287 C134.05546876 420.2684586 112.53632111 434.57216761 90.00476074 446.38768005 C89.3381543 446.74072205 88.67154785 447.09376404 87.98474121 447.45750427 C63.10540192 460.45398834 17.82978038 478.24092946 -10.80773926 469.26268005 C-11.53605957 469.05385193 -12.26437988 468.8450238 -13.01477051 468.62986755 C-16.04243916 466.73085645 -16.68439191 464.70595967 -17.99523926 461.38768005 C-18.42165335 458.06326588 -18.40541898 454.77070993 -18.38342285 451.42259216 C-18.38867981 450.43488327 -18.39393677 449.44717438 -18.39935303 448.42953491 C-18.41252438 445.1745356 -18.40382554 441.92002783 -18.39367676 438.6650238 C-18.39569815 436.39871121 -18.39861013 434.13239924 -18.40237427 431.86608887 C-18.40679361 427.12086279 -18.40037834 422.37580632 -18.38635254 417.63059998 C-18.3692513 411.54856606 -18.3791105 405.46692903 -18.39706993 399.38490963 C-18.40790984 394.70690927 -18.4044606 390.02900303 -18.39668655 385.35099983 C-18.39468564 383.10830704 -18.39714001 380.8656057 -18.40412521 378.6229229 C-18.41174397 375.48950932 -18.40012944 372.35673907 -18.38342285 369.22337341 C-18.39253189 367.83381439 -18.39253189 367.83381439 -18.40182495 366.41618347 C-18.35400373 361.57471216 -18.13667013 358.32294203 -14.99523926 354.38768005 C-12.04611239 351.62977618 -9.43484659 350.79940092 -5.51477051 349.9931488 C-3.90481201 349.64836487 -3.90481201 349.64836487 -2.2623291 349.2966156 C-1.12231445 349.05854187 0.0177002 348.82046814 1.19226074 348.57518005 C22.55894217 343.84287322 41.33495759 337.03776303 58.00476074 322.38768005 C58.82202637 321.71350037 59.63929199 321.03932068 60.48132324 320.3447113 C71.61278972 310.88468794 79.2788041 299.20478395 86.00476074 286.38768005 C86.46495605 285.52143005 86.92515137 284.65518005 87.39929199 283.76268005 C93.24192984 271.89192378 100.46958871 254.00184548 97.37976074 240.6962738 C96.17835456 238.17824486 96.17835456 238.17824486 93.49850464 237.25559998 C89.15236793 236.17592764 85.18798694 236.13843953 80.7298584 236.19236755 C79.81524338 236.19528809 78.90062836 236.19820862 77.95829773 236.20121765 C75.979273 236.20880755 74.00026171 236.22101733 72.02128983 236.23735046 C68.88492364 236.26295682 65.74872737 236.27592937 62.61227417 236.28562927 C54.82233924 236.31232493 47.0325661 236.36070451 39.24273682 236.40843201 C32.65764644 236.44796136 26.07261665 236.47921622 19.4874382 236.4995575 C16.40534294 236.51247461 13.32349879 236.53749144 10.2414856 236.56297302 C8.34047663 236.57024254 6.43946539 236.57694544 4.53845215 236.58299255 C3.68832047 236.5933252 2.83818878 236.60365784 1.96229553 236.61430359 C-3.35493651 236.61523874 -7.91709881 236.0212047 -12.99523926 234.38768005 C-17.89117806 229.36620436 -18.14266213 225.66541202 -18.13568115 218.91142273 C-18.13865227 218.02373286 -18.1416234 217.13604299 -18.14468455 216.22145343 C-18.15339787 213.22900135 -18.15488202 210.23658915 -18.15637207 207.24412537 C-18.16099842 205.10580865 -18.16602283 202.96749277 -18.17141724 200.82917786 C-18.18456171 195.00676538 -18.19099028 189.18436444 -18.19542789 183.36193943 C-18.19835558 179.72658443 -18.20245982 176.09123261 -18.20693207 172.45587921 C-18.22061295 161.0883769 -18.23027647 149.72088183 -18.23413396 138.35337186 C-18.23861506 125.21912876 -18.25616294 112.0849897 -18.28513455 98.95077825 C-18.30673467 88.80720151 -18.31683736 78.66365408 -18.31817508 68.52005458 C-18.31922439 62.45787611 -18.32515883 56.39579537 -18.34299469 50.33364105 C-18.35944626 44.6307933 -18.361645 38.92811705 -18.35285568 33.22525406 C-18.35208372 31.13144345 -18.35644887 29.03762373 -18.36631393 26.94383621 C-18.37898826 24.08630946 -18.37318106 21.2293942 -18.36273193 18.37187195 C-18.37078834 17.54248651 -18.37884474 16.71310107 -18.38714528 15.85858274 C-18.34562825 11.00687812 -17.88119538 7.47966516 -14.99523926 3.38768005 C-10.15658593 -0.02345116 -5.69518079 -0.0412117 0 0 Z M74.00476074 99.38768005 C68.9985965 106.5558598 67.11269113 114.28257868 68.37976074 122.9540863 C70.5061671 131.4464217 75.248827 138.7935036 82.44226074 143.82518005 C90.90918351 148.86535499 98.79020616 151.17799788 108.64929199 148.73143005 C117.64480277 145.52565663 123.79289411 140.01970029 128.03991699 131.49705505 C128.35831543 130.8009613 128.67671387 130.10486755 129.00476074 129.38768005 C129.43788574 128.45955505 129.87101074 127.53143005 130.31726074 126.57518005 C132.27852746 117.48203438 131.32871984 109.593213 127.00476074 101.38768005 C126.6657373 100.73928162 126.32671387 100.09088318 125.97741699 99.4228363 C122.00159058 92.95681256 115.0199558 89.01654269 107.81726074 87.01268005 C94.37595066 84.8091866 82.82066783 88.94649401 74.00476074 99.38768005 Z " fill="#00467E" transform="translate(312.9952392578125,242.61231994628906)"/>
<path d="M0 0 C0.65403809 0.21527344 1.30807617 0.43054688 1.98193359 0.65234375 C23.09950349 7.73656052 41.41445499 19.85752675 52.43359375 39.72265625 C58.52336499 52.46409781 61.33831 65.62413347 61.1953125 79.6953125 C61.19329834 80.64849365 61.19128418 81.6016748 61.18920898 82.58374023 C61.17885369 86.09754342 61.15093238 89.61127725 61.125 93.125 C61.08375 101.00375 61.0425 108.8825 61 117 C33.28 117 5.56 117 -23 117 C-23.33 103.8 -23.66 90.6 -24 77 C-26.99419522 67.01934925 -28.9793972 60.95869394 -38 56 C-47.66897441 51.213379 -61.16314497 51.52360273 -71.52734375 53.76171875 C-74.15459422 54.67350801 -76.5430512 55.70377885 -79 57 C-80.11375 57.556875 -81.2275 58.11375 -82.375 58.6875 C-89.12408992 64.63312684 -91.02962381 72.34576667 -92 81 C-92.35156067 87.20034584 -92.27400273 93.41554142 -92.25878906 99.62329102 C-92.26150329 101.49043921 -92.26506663 103.35758633 -92.26940918 105.22473145 C-92.27848349 110.26800607 -92.27500963 115.31119835 -92.26865101 120.35447431 C-92.26356601 125.64687643 -92.26828932 130.93927178 -92.27142334 136.23167419 C-92.2750554 145.11596942 -92.27028353 154.00023132 -92.26074219 162.88452148 C-92.24985576 173.13935533 -92.25338767 183.39410965 -92.264395 193.64894158 C-92.27348555 202.47303272 -92.2747446 211.29709999 -92.26951766 220.1211943 C-92.26640812 225.3829748 -92.2659607 230.64471798 -92.27259064 235.90649605 C-92.27838934 240.8535266 -92.27432114 245.80045508 -92.26280212 250.74747467 C-92.26016916 252.55740884 -92.26089719 254.36735167 -92.26532745 256.17728233 C-92.74869086 273.99242249 -92.74869086 273.99242249 -86 290 C-76.57723642 298.7384288 -66.09301461 300.58546844 -53.58203125 300.28125 C-44.91333078 299.60061049 -37.58798592 296.76774261 -31 291 C-23.2117254 281.82503261 -23.67545348 270.74553206 -23.5859375 259.34375 C-23.56720142 257.83059665 -23.54762623 256.31745347 -23.5272522 254.80432129 C-23.47618241 250.84576451 -23.43642309 246.88717395 -23.39910889 242.9284668 C-23.3518273 238.16583464 -23.29033847 233.40336679 -23.23126221 228.64086914 C-23.14335698 221.42731334 -23.07337361 214.21378412 -23 207 C-34.55 207 -46.1 207 -58 207 C-58 188.52 -58 170.04 -58 151 C-18.73 151 20.54 151 61 151 C61.16121214 184.16939716 61.16121214 184.16939716 61.1953125 198.15820312 C61.2189701 207.78532517 61.24665414 217.41230633 61.30175781 227.03930664 C61.34188506 234.05322117 61.36749367 241.06702049 61.37635398 248.08104664 C61.38152542 251.78788955 61.3934998 255.49440312 61.42292023 259.20113945 C61.62261622 285.39927135 59.66312028 308.17515079 42 329 C41.38511719 329.72832031 40.77023437 330.45664062 40.13671875 331.20703125 C19.98184391 353.0882337 -13.64572476 359.29070726 -42 361 C-82.05659685 362.46621295 -125.09383722 359.48944028 -156 331 C-170.60671905 316.08083777 -177.16282804 294.72013628 -177.14044189 274.21754456 C-177.14341302 273.35713953 -177.14638414 272.49673451 -177.1494453 271.61025661 C-177.15808674 268.73959142 -177.15963669 265.86896816 -177.16113281 262.99829102 C-177.16576434 260.9345745 -177.17078945 258.87085884 -177.17617798 256.80714417 C-177.18927474 251.20748972 -177.19574203 245.60784726 -177.20018864 240.0081799 C-177.20312474 236.50421505 -177.20723064 233.00025343 -177.21169281 229.49629021 C-177.22536273 218.51748977 -177.23503095 207.53869678 -177.2388947 196.55988842 C-177.24336946 183.91650818 -177.26089251 171.27323636 -177.2898953 158.62988907 C-177.31157047 148.83849385 -177.32160215 139.047129 -177.32293582 129.25571007 C-177.32397999 123.41685082 -177.32980444 117.57809356 -177.34775543 111.73925972 C-177.36433645 106.23904445 -177.36634329 100.73900674 -177.35761642 95.23877525 C-177.3568513 93.23140103 -177.36111864 91.22401686 -177.37107468 89.21666718 C-177.48643613 64.48641548 -173.31895116 41.2907459 -155.4375 22.875 C-118.51214725 -13.44559106 -46.55007986 -15.32683386 0 0 Z " fill="#00467E" transform="translate(798,201)"/>
<path d="M0 0 C180.47462687 0 180.47462687 0 197 8 C198.18335938 8.57041016 198.18335938 8.57041016 199.390625 9.15234375 C215.944666 17.74771119 227.53612222 31.81561728 233.8125 49.25 C237.7143859 62.06609602 238.3068782 75.07648341 238.265625 88.40234375 C238.26697956 89.8184872 238.26892657 91.2346302 238.27142334 92.65077209 C238.27433852 95.59103914 238.27019606 98.53118305 238.26074219 101.47143555 C238.24935878 105.18720372 238.25611004 108.90268516 238.26761913 112.61844349 C238.34686992 142.6894602 237.48885614 169.44438281 215.875 192.5625 C202.2257083 205.79607724 183.43378231 212.39493355 164.60302734 212.22705078 C163.70972528 212.22729185 162.81642323 212.22753292 161.89605141 212.2277813 C159.04257398 212.22630438 156.18936736 212.21114709 153.3359375 212.1953125 C151.55900193 212.19236702 149.78206461 212.1903297 148.00512695 212.18920898 C141.46172461 212.17878013 134.91835956 212.15085765 128.375 212.125 C113.73125 212.08375 99.0875 212.0425 84 212 C84 261.5 84 311 84 362 C56.28 362 28.56 362 0 362 C0 242.54 0 123.08 0 0 Z M84 59 C84 91.01 84 123.02 84 156 C96.0965625 156.12375 96.0965625 156.12375 108.4375 156.25 C110.96591553 156.28641602 113.49433105 156.32283203 116.09936523 156.36035156 C118.1274328 156.37204572 120.15550982 156.38223582 122.18359375 156.390625 C123.73391296 156.4213208 123.73391296 156.4213208 125.31555176 156.45263672 C133.02649434 156.45631253 139.21436491 155.05417339 145.3046875 150.140625 C153.27805926 140.54084407 154.15151145 130.77870299 154.16796875 118.63671875 C154.17129715 117.7640889 154.17462555 116.89145905 154.17805481 115.99238586 C154.18308926 114.15614341 154.18546422 112.31989192 154.18530273 110.48364258 C154.18748567 107.70573518 154.20566902 104.92822781 154.22460938 102.15039062 C154.63081872 83.50981831 154.63081872 83.50981831 147 67 C129.87468766 52.02740047 105.05548963 59 84 59 Z " fill="#00467E" transform="translate(1109,196)"/>
<path d="M0 0 C0.99128906 0.763125 1.98257812 1.52625 3.00390625 2.3125 C6.14153737 4.95576485 8.40040492 8.03424598 10.5625 11.5 C11.13991943 12.41966553 11.13991943 12.41966553 11.72900391 13.35791016 C22.29719787 30.70115888 24.1433707 50.72074737 24.16113281 70.63183594 C24.16577127 71.98823681 24.17079728 73.34463641 24.17617798 74.70103455 C24.18921308 78.36501747 24.19573051 82.02898213 24.20018864 85.69298458 C24.20313641 87.99327519 24.20724447 90.29356101 24.21169281 92.59384918 C24.22535009 99.82282063 24.23502296 107.05178089 24.2388947 114.28076434 C24.24335832 122.56487042 24.26083432 130.8488101 24.2898953 139.13286567 C24.31168925 145.57408969 24.32160846 152.01526754 24.32293582 158.45652795 C24.32397215 162.28512774 24.3296231 166.11357081 24.34775543 169.94213104 C24.47598692 198.68463119 23.65776711 224.82766973 6.75 249.25 C-8.4959504 264.4959504 -28.39149714 270.17779539 -49.5 270.25 C-66.9456541 270.24192929 -81.0972234 266.31423537 -96 257 C-96.33 287.69 -96.66 318.38 -97 350 C-119.77 350 -142.54 350 -166 350 C-166 231.2 -166 112.4 -166 -10 C-143.23 -10 -120.46 -10 -97 -10 C-96.505 -6.04 -96.505 -6.04 -96 -2 C-95.46632813 -2.38671875 -94.93265625 -2.7734375 -94.3828125 -3.171875 C-67.69052479 -21.82876814 -25.41379106 -19.92576309 0 0 Z M-90 42 C-95.11676782 48.70436035 -97.11583161 54.4530857 -97.14044189 62.84892273 C-97.14615204 64.01932602 -97.15186218 65.18972931 -97.15774536 66.39559937 C-97.15886322 67.67101593 -97.15998108 68.9464325 -97.16113281 70.26049805 C-97.16576486 71.62430454 -97.17079004 72.98810974 -97.17617798 74.35191345 C-97.18926835 78.05051749 -97.19574057 81.7491034 -97.20018864 85.44772696 C-97.20312533 87.76198108 -97.2072313 90.07623031 -97.21169281 92.39048195 C-97.22536006 99.64133578 -97.23503 106.89217836 -97.2388947 114.14304417 C-97.24337104 122.49409019 -97.26090242 130.84497217 -97.2898953 139.19596833 C-97.3115636 145.66326658 -97.32160175 152.13051886 -97.32293582 158.597853 C-97.32398034 162.45466511 -97.32981232 166.31132287 -97.34775543 170.16809654 C-97.36432508 173.8002085 -97.36634895 177.43205155 -97.35761642 181.064188 C-97.35648811 183.01839796 -97.37013732 184.97259935 -97.3843689 186.92675781 C-97.33924157 196.52488256 -96.53205074 205.30388181 -89.6796875 212.53125 C-81.76661568 219.45058722 -72.97105698 219.64521474 -62.95751953 219.17919922 C-57.15079971 218.64762871 -52.01093799 216.51916874 -48.0625 212.1875 C-41.70257284 202.35852166 -41.85057005 193.19496157 -41.85473633 181.87963867 C-41.85137772 180.56819382 -41.8480191 179.25674896 -41.84455872 177.90556335 C-41.83575963 174.32277136 -41.83338233 170.74000328 -41.83274293 167.15720153 C-41.83203008 164.91429572 -41.82989132 162.67139591 -41.82724571 160.42849159 C-41.8180057 152.59091433 -41.81390912 144.75335402 -41.81469727 136.91577148 C-41.81529764 129.63071594 -41.80475028 122.34573453 -41.7889536 115.06069773 C-41.77584222 108.78868648 -41.77051488 102.51669935 -41.77115268 96.2446745 C-41.77140661 92.50641952 -41.76861333 88.76823048 -41.75797462 85.02998924 C-41.74641945 80.85612359 -41.75106242 76.68242226 -41.75708008 72.50854492 C-41.75146057 71.28379456 -41.74584106 70.05904419 -41.74005127 68.79718018 C-41.77658382 58.798882 -42.10829947 48.85373994 -49 41 C-54.87197977 35.96137981 -61.44159537 34.37986705 -69 33.75 C-77.19084129 34.43257011 -83.8108432 36.32176796 -90 42 Z " fill="#00467E" transform="translate(1945,293)"/>
<path d="M0 0 C14.20391327 12.79439851 21.09525277 28.97965949 22.46375656 47.92193794 C22.57316367 51.94702752 22.59384567 55.96155297 22.57543945 59.98754883 C22.57951791 61.51382825 22.58486684 63.04010471 22.59136963 64.56637573 C22.60489677 68.66347973 22.5998062 72.76035386 22.59023237 76.85746121 C22.58256051 81.17369214 22.58970191 85.48990526 22.59439087 89.80613708 C22.59982616 97.04909751 22.59271505 104.29196573 22.57836914 111.53491211 C22.56204075 119.87437626 22.56734151 128.21362034 22.58384836 136.55307919 C22.59751969 143.75186134 22.59935563 150.95057775 22.59153235 158.1493687 C22.5868875 162.43202403 22.58614221 166.71457635 22.59614182 170.99722481 C22.60489226 175.0251176 22.59864446 179.05273017 22.58145905 183.08059311 C22.57753713 184.54698538 22.57855317 186.01340178 22.58524704 187.47978401 C22.66215027 206.05805719 18.72803848 222.31750708 7.18725586 237.09472656 C6.42155273 238.12533203 6.42155273 238.12533203 5.64038086 239.17675781 C-7.54752643 255.72692859 -29.2108989 261.92849966 -49.38769531 264.41162109 C-80.63160217 267.56734319 -116.59038558 265.83156565 -142.50024414 245.96972656 C-157.27418315 233.21815673 -164.35979878 216.27090128 -165.81274414 197.09472656 C-165.95848737 192.26918631 -165.9600153 187.44473323 -165.95800781 182.61743164 C-165.96100514 181.17085687 -165.96440899 179.7242829 -165.96818542 178.27770996 C-165.97697242 174.3703984 -165.97936133 170.46310877 -165.98000121 166.55578828 C-165.98071487 164.10747379 -165.98285517 161.65916479 -165.98549843 159.21085167 C-165.99473518 150.64894638 -165.99883552 142.08705659 -165.99804688 133.52514648 C-165.99744693 125.57779993 -166.0079867 117.63052143 -166.02379054 109.68319207 C-166.03692166 102.83273911 -166.04222843 95.98230823 -166.04159147 89.13184279 C-166.04133806 85.05255496 -166.0441013 80.97332766 -166.05476952 76.89405251 C-166.06454453 73.05180033 -166.06446623 69.20966538 -166.05725288 65.36740875 C-166.05621853 63.96874251 -166.0585003 62.5700686 -166.06461334 61.17141533 C-166.15178305 39.81954886 -162.58686485 19.49325674 -147.41430664 3.50878906 C-112.88542741 -28.5315223 -36.28062102 -31.09608749 0 0 Z M-92.81274414 36.09472656 C-97.17147813 41.42091225 -98.93447718 46.22194752 -98.95318604 53.09623718 C-98.95889618 54.350923 -98.96460632 55.60560883 -98.9704895 56.89831543 C-98.97173486 58.29150381 -98.97285996 59.6846923 -98.97387695 61.07788086 C-98.97850567 62.54315821 -98.9835304 64.00843436 -98.98892212 65.47370911 C-99.00204544 69.45741218 -99.00849128 73.4410984 -99.01293278 77.42481971 C-99.01586442 79.91493249 -99.01996946 82.40504067 -99.02443695 84.89515114 C-99.03811348 92.68955453 -99.04777862 100.48394741 -99.05163884 108.27836198 C-99.05611612 117.26900873 -99.07364799 126.25950319 -99.10263944 135.25010365 C-99.12427997 142.20310103 -99.13434443 149.15605565 -99.13567996 156.10908633 C-99.13672655 160.25984826 -99.14260294 164.41046706 -99.16049957 168.56119347 C-99.1770207 172.46904773 -99.17911628 176.37665192 -99.17036057 180.28452873 C-99.16959227 181.71474122 -99.17390546 183.14496738 -99.18381882 184.57514572 C-99.3510734 196.5214743 -99.3510734 196.5214743 -94.30493164 207.08300781 C-85.39822306 214.37618223 -75.92995759 215.01258909 -64.77905273 214.29736328 C-56.86950768 213.48225 -52.01951126 210.03996344 -47.09008789 203.99707031 C-44.6546015 200.36990863 -44.68185424 197.22770526 -44.66557312 192.97932434 C-44.65841782 191.69939606 -44.65126251 190.41946777 -44.64389038 189.10075378 C-44.64105012 187.67922998 -44.63833839 186.25770591 -44.63574219 184.83618164 C-44.62947666 183.34134768 -44.62282978 181.84651527 -44.61582947 180.35168457 C-44.59479466 175.43922 -44.58442664 170.52675515 -44.57446289 165.61425781 C-44.57041492 163.92209036 -44.56629798 162.22992308 -44.56211281 160.53775597 C-44.54306127 152.58637823 -44.52883098 144.63500977 -44.52050084 136.6836136 C-44.51073252 127.51124251 -44.48442354 118.33911301 -44.44399995 109.16682702 C-44.41381467 102.07370451 -44.39902962 94.98065114 -44.39571983 87.88746566 C-44.3933718 83.65281721 -44.38444392 79.41842686 -44.35925865 75.18384743 C-44.335931 71.19714902 -44.33176335 67.21087777 -44.34202003 63.22412872 C-44.34251439 61.76488255 -44.3362234 60.30561502 -44.32246399 58.84643364 C-44.25136583 50.85619174 -44.33623732 44.86073843 -48.81274414 38.09472656 C-60.36372859 26.54374212 -79.98759969 25.97626941 -92.81274414 36.09472656 Z " fill="#00467E" transform="translate(1053.812744140625,297.9052734375)"/>
<path d="M0 0 C13.25957887 12.42695225 20.51550556 28.12538126 21.13461304 46.27288818 C21.25963335 52.8565746 21.2134194 59.43913582 21.16796875 66.0234375 C21.16354877 68.17358161 21.16049387 70.32372896 21.15881348 72.47387695 C21.14319064 80.37846773 21.10130708 88.28298905 21.0625 96.1875 C21.000625 113.88375 20.93875 131.58 20.875 149.8125 C-17.075 149.8125 -55.025 149.8125 -94.125 149.8125 C-96.03318048 180.13439486 -96.03318048 180.13439486 -88.5625 210.6875 C-82.32701678 216.1235623 -75.11876141 217.45770265 -67.01953125 217.125 C-60.73100182 216.44607644 -56.02408353 215.23386588 -51.6875 210.4375 C-43.44093857 199.54839403 -45.68521556 184.69745783 -45.125 171.8125 C-23.345 171.8125 -1.565 171.8125 20.875 171.8125 C20.875 222.60777559 20.875 222.60777559 0.890625 243.9296875 C-17.02399924 261.23817784 -43.06233739 265.19415368 -66.92504883 265.12817383 C-69.2923046 265.12502685 -71.65828923 265.14852336 -74.02539062 265.17382812 C-98.498875 265.27565031 -122.69464524 260.38798965 -140.953125 242.97265625 C-141.66984375 242.25980469 -142.3865625 241.54695313 -143.125 240.8125 C-143.67671875 240.29558594 -144.2284375 239.77867187 -144.796875 239.24609375 C-148.52010925 235.41276387 -150.88148098 230.83489188 -153.3125 226.125 C-153.64588379 225.49005615 -153.97926758 224.8551123 -154.32275391 224.20092773 C-159.85732576 213.00504874 -160.56851056 201.65221354 -160.52905273 189.37402344 C-160.53476776 187.75290968 -160.54173636 186.13179994 -160.54985046 184.51069641 C-160.56767559 180.14057851 -160.56663326 175.77066259 -160.56090808 171.40051937 C-160.5577996 167.73555179 -160.56392727 164.07062208 -160.56994683 160.40565991 C-160.58395659 151.74908577 -160.58246146 143.09261038 -160.57104492 134.43603516 C-160.55957739 125.54507039 -160.57362452 116.65440776 -160.6004414 107.76348281 C-160.62269352 100.09509227 -160.62921417 92.4267959 -160.62336498 84.75837541 C-160.62001562 80.19388225 -160.62227404 75.62958248 -160.63961601 71.06511688 C-160.65523485 66.76717271 -160.65096667 62.46967103 -160.63231087 58.17174339 C-160.62866534 56.60782383 -160.63161321 55.04387038 -160.64219666 53.47998238 C-160.76934373 33.11296999 -155.56644386 15.82430104 -141.125 0.8125 C-108.00695301 -28.32331607 -33.87863401 -28.76101558 0 0 Z M-89.5625 34 C-94.17267948 42.29832306 -94.53667766 50.00854576 -94.41796875 59.37890625 C-94.41372391 60.65354233 -94.40947906 61.92817841 -94.40510559 63.24143982 C-94.39123423 66.60025493 -94.36436858 69.95843699 -94.33099365 73.31707764 C-94.3000873 76.75625089 -94.28639132 80.19549195 -94.27148438 83.63476562 C-94.24108548 90.36102873 -94.18234454 97.08619755 -94.125 103.8125 C-77.955 103.8125 -61.785 103.8125 -45.125 103.8125 C-45.07894714 96.16260782 -45.03916285 88.51320188 -45.01513672 80.86328125 C-45.00511454 78.26398076 -44.99149321 75.66469145 -44.97412109 73.06542969 C-44.94970622 69.31702914 -44.93847871 65.56877841 -44.9296875 61.8203125 C-44.91936493 60.66886749 -44.90904236 59.51742249 -44.89840698 58.33108521 C-44.89706288 48.54022757 -45.00090988 39.67765227 -52.1640625 32.44140625 C-58.47880604 27.19589219 -65.42393056 27.28559469 -73.41796875 27.4609375 C-79.76349701 28.06272627 -84.79519082 29.72164561 -89.5625 34 Z " fill="#00467E" transform="translate(1727.125,297.1875)"/>
<path d="M0 0 C12.4916143 12.21402287 18.47690326 29.06417558 18.87158203 46.33544922 C18.89938874 53.53255109 18.58350927 60.64039 18 67.8125 C17.92974609 68.79154297 17.85949219 69.77058594 17.78710938 70.77929688 C17.00619097 80.59387934 15.36340358 89.92761065 13.8125 99.75 C-6.6475 99.75 -27.1075 99.75 -48.1875 99.75 C-47.1975 95.13 -46.2075 90.51 -45.1875 85.75 C-43.16443409 72.87594423 -42.08142141 56.79425261 -49.0625 45.1875 C-52.85536414 40.83686172 -56.80687965 39.10616207 -62.44921875 38.51171875 C-71.43157973 38.23689611 -77.71244193 41.16550795 -84.58203125 46.796875 C-89.35815432 52.6072437 -90.7790489 58.26014892 -90.70648193 65.64648438 C-90.71398319 66.50678222 -90.72148444 67.36708006 -90.729213 68.25344753 C-90.74940604 71.11713131 -90.74140403 73.98001696 -90.73339844 76.84375 C-90.742138 78.90402506 -90.75262512 80.96429333 -90.76472473 83.02455139 C-90.79255819 88.60453235 -90.79598999 94.18429153 -90.79500484 99.76433182 C-90.7981362 105.60066938 -90.8237591 111.4369074 -90.84698486 117.27319336 C-90.88753122 128.31916583 -90.90788241 139.36507928 -90.92095876 150.41111469 C-90.93683338 162.98910659 -90.97525101 175.56699813 -91.01555204 188.14493179 C-91.09793244 214.01327406 -91.14906052 239.88155254 -91.1875 265.75 C-113.9575 265.75 -136.7275 265.75 -160.1875 265.75 C-160.1875 175 -160.1875 84.25 -160.1875 -9.25 C-137.4175 -9.25 -114.6475 -9.25 -91.1875 -9.25 C-91.1875 -5.62 -91.1875 -1.99 -91.1875 1.75 C-90.38828125 1.23050781 -89.5890625 0.71101563 -88.765625 0.17578125 C-60.45976882 -17.79777297 -28.04196315 -19.79432693 0 0 Z " fill="#00467E" transform="translate(1531.1875,292.25)"/>
</svg>
